<svg xmlns="http://www.w3.org/2000/svg" xmlns:xlink="http://www.w3.org/1999/xlink" width="41" height="40" viewBox="0 0 41 40">
    <defs>
        <path id="a" d="M8.69 4.422c2.527 1.338 5.27 5.983 5.386 6.18.488.857.641 1.737.434 2.485a2.216 2.216 0 0 1-1.03 1.33c-.812.68-1.762 1.522-1.91 1.729-1.027 1.514-.95 2.731.268 4.034l.151.156 7.652 7.652c1.363 1.361 2.615 1.487 4.193.42.205-.148 1.047-1.098 1.727-1.911a2.215 2.215 0 0 1 1.33-1.03c.747-.207 1.627-.055 2.478.431.204.12 4.849 2.862 6.187 5.39a3.267 3.267 0 0 1-.44 3.71l-.141.15-1.69 1.69c-2.095 2.095-4.385 3.144-6.848 3.144-1.74 0-3.565-.523-5.468-1.57-.993-.545-1.97-1.273-2.911-2.166l-.351-.343L4.04 22.19c-1.282-1.286-2.269-2.66-2.934-4.084C-.83 13.962-.222 10.202 2.91 6.926l.228-.234 1.69-1.69a3.27 3.27 0 0 1 3.86-.58zM28.61 0c6.244 0 11.325 5.08 11.325 11.325 0 6.244-5.08 11.324-11.325 11.324-1.93 0-3.836-.502-5.53-1.453l-4.944 1.427a.672.672 0 0 1-.643-.156.667.667 0 0 1-.19-.635l1.237-5.324a11.336 11.336 0 0 1-1.255-5.183C17.285 5.08 22.365 0 28.61 0zm-3.33 6.661a3.335 3.335 0 0 0-3.331 3.331.666.666 0 0 0 1.332 0c0-1.102.896-1.998 2.03-1.998.606.01 1.107.36 1.341.94.196.485.21 1.199-.307 1.718l-4.023 3.468c-.34.293-.459.754-.303 1.175.156.42.547.693.996.693h4.929a.666.666 0 0 0 0-1.333H23.74l3.51-3.028a2.943 2.943 0 0 0 .636-3.193c-.435-1.074-1.413-1.754-2.608-1.773zm8.204.034a.67.67 0 0 0-.744.233l-3.997 5.33a.667.667 0 0 0 .533 1.065h3.331v1.998a.666.666 0 0 0 1.332 0v-1.998h.666a.667.667 0 0 0 0-1.332h-.666V7.328a.666.666 0 0 0-.455-.633zm-.877 2.631v2.665h-1.999l1.999-2.665z"/>
        <linearGradient id="c" x1="-31.331%" x2="116.158%" y1="-32.117%" y2="115.79%">
            <stop offset="0%" stop-color="#FFA864"/>
            <stop offset="29.44%" stop-color="#FF4A86"/>
            <stop offset="64.089%" stop-color="#C63396"/>
            <stop offset="100%" stop-color="#662BA2"/>
        </linearGradient>
    </defs>
    <g fill="none" fill-rule="evenodd" transform="translate(.8)">
        <mask id="b" fill="#fff">
            <use xlink:href="#a"/>
        </mask>
        <use fill="#000" fill-rule="nonzero" xlink:href="#a"/>
        <g fill="url(#c)" fill-rule="nonzero" mask="url(#b)">
            <path d="M0 0h40.1v40.1H0z"/>
        </g>
    </g>
</svg>
