<svg xmlns="http://www.w3.org/2000/svg" xmlns:xlink="http://www.w3.org/1999/xlink" width="36" height="42" viewBox="0 0 36 42">
    <defs>
        <path id="a" d="M15.392.705a2.526 2.526 0 0 1 3.502 0l.026.026c3.06 3.065 6.641 4.616 11.27 4.882 2.22.127 3.985 2.015 4.018 4.296.007.468.019.889.037 1.286v.032c.09 4.86.202 10.91-1.77 16.406-1.082 3.015-2.719 5.635-4.865 7.79-2.443 2.451-5.642 4.399-9.509 5.789a2.883 2.883 0 0 1-.958.167 2.818 2.818 0 0 1-.956-.167c-3.871-1.387-7.074-3.334-9.52-5.786-2.146-2.154-3.783-4.773-4.863-7.787C-.162 22.16-.05 16.121.04 11.27l.002-.074c.018-.4.03-.82.036-1.285.033-2.282 1.798-4.17 4.018-4.297 4.63-.266 8.21-1.817 11.27-4.882zm1.75 9.673c-5.532 0-10.033 4.626-10.033 10.312 0 5.687 4.5 10.313 10.034 10.313 5.532 0 10.034-4.626 10.034-10.313 0-5.686-4.502-10.312-10.034-10.312zm-.285 2.627c4.254 0 7.714 3.58 7.714 7.98s-3.46 7.98-7.714 7.98c-4.254 0-7.714-3.58-7.714-7.98s3.46-7.98 7.714-7.98zm4.58 4.74a1.16 1.16 0 0 0-1.68 0l-4.686 4.848-1.272-1.316a1.16 1.16 0 0 0-1.68 0 1.259 1.259 0 0 0 0 1.738l2.112 2.184a1.163 1.163 0 0 0 1.68 0l5.526-5.717a1.259 1.259 0 0 0 0-1.738z"/>
        <linearGradient id="c" x1="-27.412%" x2="112.971%" y1="-32.117%" y2="115.79%">
            <stop offset="0%" stop-color="#FFA864"/>
            <stop offset="29.44%" stop-color="#FF4A86"/>
            <stop offset="64.089%" stop-color="#C63396"/>
            <stop offset="100%" stop-color="#662BA2"/>
        </linearGradient>
    </defs>
    <g fill="none" fill-rule="evenodd" transform="translate(.857 .31)">
        <mask id="b" fill="#fff">
            <use xlink:href="#a"/>
        </mask>
        <use fill="#FFF" fill-rule="nonzero" xlink:href="#a"/>
        <g fill="url(#c)" fill-rule="nonzero" mask="url(#b)">
            <path d="M-3 0h40.1v41.103H-3z"/>
        </g>
    </g>
</svg>
